<?xml version="1.0" standalone="no"?>
<!DOCTYPE svg PUBLIC "-//W3C//DTD SVG 20010904//EN"
 "http://www.w3.org/TR/2001/REC-SVG-20010904/DTD/svg10.dtd">
<svg version="1.0" xmlns="http://www.w3.org/2000/svg"
 width="700.000000pt" height="700.000000pt" viewBox="0 0 700.000000 700.000000"
 preserveAspectRatio="xMidYMid meet">
<metadata>
Created by potrace 1.14, written by Peter Selinger 2001-2017
</metadata>
<g transform="translate(0.000000,700.000000) scale(0.100000,-0.100000)"
fill="#000000" stroke="none">
<path d="M2230 6144 c-258 -69 -468 -299 -508 -554 -9 -57 -9 -195 0 -240 11
-54 42 -138 82 -221 58 -121 55 -170 -21 -304 -22 -38 -64 -115 -93 -170 -29
-55 -60 -113 -70 -130 -9 -16 -41 -74 -69 -129 -61 -115 -94 -154 -159 -189
-58 -31 -84 -36 -193 -41 -61 -3 -112 -13 -180 -36 -297 -99 -488 -347 -489
-636 0 -150 30 -257 105 -374 125 -193 298 -293 530 -306 119 -7 182 -26 231
-68 35 -30 175 -258 311 -506 8 -14 25 -43 39 -65 83 -137 90 -238 25 -365
-139 -268 -92 -572 119 -780 137 -135 291 -193 488 -185 79 4 197 29 216 46 6
5 17 9 25 9 25 0 146 77 205 131 30 28 75 81 100 117 55 84 78 105 141 133 48
21 60 22 430 22 355 0 383 -2 431 -20 71 -28 119 -67 165 -135 124 -183 321
-291 547 -302 254 -12 500 139 617 379 45 91 51 113 64 219 39 313 -141 593
-447 696 -126 42 -242 47 -392 17 -43 -9 -106 -34 -172 -69 -74 -39 -214 -172
-249 -237 -42 -76 -47 -84 -84 -122 -69 -72 -85 -74 -485 -74 -353 0 -355 0
-399 23 -42 23 -121 97 -121 114 0 5 -12 27 -27 51 -134 209 -331 322 -582
333 -53 2 -119 11 -147 19 -93 27 -115 53 -269 317 -5 10 -56 93 -111 185 -56
93 -107 185 -113 205 -19 59 -16 137 8 215 29 94 73 137 165 165 39 11 792 11
832 -1 76 -22 130 -68 179 -155 71 -122 216 -236 363 -283 83 -27 233 -36 322
-20 176 33 349 158 465 337 52 80 76 103 140 131 49 22 59 22 483 23 239 1
437 -1 442 -4 4 -3 11 -16 14 -30 23 -77 85 -179 151 -246 137 -138 320 -207
532 -199 350 14 641 330 641 695 0 100 -19 174 -69 271 -77 149 -205 258 -369
317 -94 33 -123 39 -220 48 -169 14 -214 47 -320 239 -12 22 -73 128 -135 235
-163 283 -158 272 -159 365 0 73 3 88 41 170 53 114 73 189 77 290 10 244
-102 461 -302 588 -82 52 -128 73 -208 91 -77 17 -249 13 -327 -8 -163 -45
-305 -147 -396 -286 -20 -30 -43 -63 -51 -73 -21 -26 -89 -64 -130 -72 -19 -4
-195 -8 -390 -7 -335 0 -358 1 -410 21 -70 26 -120 68 -169 140 -94 137 -270
255 -428 286 -72 14 -210 13 -263 -1z m1659 -789 c43 -15 104 -56 129 -85 6
-8 34 -51 61 -95 86 -139 212 -246 341 -289 87 -28 129 -36 219 -40 50 -3 108
-10 129 -17 86 -28 101 -47 279 -363 92 -165 176 -320 186 -345 11 -26 19 -73
20 -107 0 -55 -4 -69 -43 -135 -27 -46 -48 -97 -55 -134 l-11 -59 -414 -1
c-228 0 -435 3 -460 8 -70 12 -129 54 -183 132 -91 132 -177 210 -302 274
-301 152 -671 34 -847 -270 -49 -84 -81 -117 -137 -142 -44 -20 -63 -21 -431
-21 -367 0 -387 1 -430 20 -62 29 -110 82 -154 171 -45 91 -55 171 -27 224 9
19 83 151 163 294 80 143 158 284 174 314 57 106 137 149 290 157 142 7 242
40 355 115 57 38 158 141 181 183 74 139 124 190 209 214 19 6 186 11 374 11
280 1 348 -2 384 -14z"/>
</g>
</svg>
